<svg xmlns="http://www.w3.org/2000/svg" viewBox="0 0 64 64" role="img" aria-label="Construction worker">
  <defs>
    <linearGradient id="vest" x1="0" x2="0" y1="0" y2="1">
      <stop offset="0" stop-color="#ffb454"/>
      <stop offset="1" stop-color="#f97316"/>
    </linearGradient>
    <linearGradient id="hat" x1="0" x2="0" y1="0" y2="1">
      <stop offset="0" stop-color="#fff27a"/>
      <stop offset="1" stop-color="#facc15"/>
    </linearGradient>
  </defs>
  <ellipse cx="32" cy="59" rx="18" ry="4" fill="#111827" opacity=".28"/>
  <circle cx="32" cy="22" r="10" fill="#f3c18a" stroke="#1f2937" stroke-width="3"/>
  <path d="M18 22c1-10 7-16 14-16s13 6 14 16H18Z" fill="url(#hat)" stroke="#1f2937" stroke-width="3" stroke-linejoin="round"/>
  <path d="M17 22h30" stroke="#1f2937" stroke-width="4" stroke-linecap="round"/>
  <rect x="20" y="34" width="24" height="24" rx="6" fill="url(#vest)" stroke="#1f2937" stroke-width="3"/>
  <path d="M25 36h4l-2 20M39 36h-4l2 20" stroke="#f8fafc" stroke-width="3" stroke-linecap="round"/>
  <path d="M16 39h10v7H16zM38 39h10v7H38z" fill="#f3c18a" stroke="#1f2937" stroke-width="3" stroke-linejoin="round"/>
  <path d="M22 58h7M35 58h7" stroke="#1f2937" stroke-width="5" stroke-linecap="round"/>
</svg>
